<svg xmlns="http://www.w3.org/2000/svg" width="13.984" height="13.934" viewBox="0 0 13.984 13.934"><defs><style>.a{fill:#ffffff;}</style></defs><g transform="translate(0.05 3.981)"><path class="a" d="M7.986,18.953H5V9H7.986Zm10.948,0H15.948V13.636c0-1.385-.494-2.075-1.472-2.075a1.471,1.471,0,0,0-1.514,1.159v6.232H9.976S10.016,10,9.976,9h2.357l.182,1.991h.062a3.323,3.323,0,0,1,2.932-1.67,3.091,3.091,0,0,1,2.475,1,4.307,4.307,0,0,1,.949,3.016Z" transform="translate(-5 -9)"/></g><g transform="translate(0 0)"><ellipse class="a" cx="1.543" cy="1.493" rx="1.543" ry="1.493"/></g></svg>