<svg xmlns="http://www.w3.org/2000/svg" width="15.948" height="15.948" viewBox="0 0 15.948 15.948"><defs><style>.a{fill:#ffffff;}</style></defs><path class="a" d="M19.516,16.7a4.116,4.116,0,1,0,4.116,4.116A4.124,4.124,0,0,0,19.516,16.7Zm0,6.752a2.637,2.637,0,1,1,2.637-2.637A2.648,2.648,0,0,1,19.516,23.452Z" transform="translate(-11.542 -12.874)"/><ellipse class="a" cx="0.932" cy="0.932" rx="0.932" ry="0.932" transform="translate(11.318 2.797)"/><path class="a" d="M18.062,6.118A4.579,4.579,0,0,0,14.686,4.8H8.062A4.4,4.4,0,0,0,3.4,9.462v6.591a4.626,4.626,0,0,0,1.35,3.44,4.692,4.692,0,0,0,3.344,1.254h6.559a4.748,4.748,0,0,0,3.376-1.254,4.6,4.6,0,0,0,1.318-3.408V9.462A4.609,4.609,0,0,0,18.062,6.118Zm-.129,9.967A3.142,3.142,0,0,1,17,18.433a3.324,3.324,0,0,1-2.347.836H8.094a3.324,3.324,0,0,1-2.347-.836,3.232,3.232,0,0,1-.868-2.379V9.462a3.205,3.205,0,0,1,.868-2.347,3.27,3.27,0,0,1,2.347-.836h6.624a3.205,3.205,0,0,1,2.347.868,3.318,3.318,0,0,1,.868,2.315v6.624Z" transform="translate(-3.4 -4.8)"/></svg>